<svg width="480" height="285" viewBox="0 0 480 285" fill="none" xmlns="http://www.w3.org/2000/svg">
<path d="M479.601 140.654C479.601 218.069 372.368 280.824 240.082 280.824C107.797 280.824 0.563965 218.069 0.563965 140.654C0.563965 63.24 107.797 0.481903 240.082 0.481903C372.368 0.481903 479.601 63.24 479.601 140.654Z" fill="#6FC1C2"/>
<path d="M367.475 222.603C352.423 211.618 233.287 187.505 233.287 187.505C233.287 187.505 116.644 214.178 99.0836 222.603C81.5271 231.03 74.9565 284.286 74.9565 284.286H388.164C388.164 284.286 382.518 233.588 367.475 222.603Z" fill="#15355F"/>
<path d="M270.213 200.378C270.213 200.378 267.745 207.377 253.577 211.077C248.486 212.412 241.866 229.406 233.308 229.406C224.273 229.406 217.393 212.307 212.191 210.846C198.794 207.091 196.419 200.378 196.419 200.378C196.419 200.378 205.409 189.915 196.419 177.633C187.429 165.352 281.216 162.86 270.213 177.633C259.211 192.406 270.213 200.378 270.213 200.378Z" fill="#D89461"/>
<path d="M317.506 151.477C324.378 133.439 332.672 106.875 332.672 106.875C361.088 69.6792 331.617 13.6127 276.519 30.8481C208.334 -5.59906 100.461 45.3732 136.947 106.37C136.947 106.37 141.358 134.285 148.45 152.066C156.434 172.058 215.312 186.921 233.288 187.505C251.268 188.094 310.243 170.591 317.506 151.477Z" fill="#1E1111"/>
<path d="M337.584 117.519C337.584 127.264 325.779 140.654 317.824 140.654C309.86 140.654 303.412 132.749 303.412 123.006C303.412 113.263 311.55 108.236 317.824 105.366C325.526 101.835 337.584 105.366 337.584 117.519Z" fill="#F9AA78"/>
<path d="M131.375 117.519C131.375 127.264 143.179 140.654 151.127 140.654C159.086 140.654 165.547 132.749 165.547 123.006C165.547 113.263 157.396 108.236 151.127 105.366C143.432 101.835 131.375 105.366 131.375 117.519Z" fill="#F9AA78"/>
<path d="M234.811 40.2739C178.87 40.2739 154.144 63.2116 154.144 97.418C154.144 114.849 154.144 128.47 154.144 140.259C154.144 170.06 212.969 195.541 231.56 195.541C250.135 195.541 315.469 165.745 315.469 137.517C315.469 126.361 315.469 113.512 315.469 97.418C315.469 63.2116 290.743 40.2739 234.811 40.2739Z" fill="#F9AA78"/>
<path d="M315.469 121.831L320.508 96.8722C320.508 62.6611 290.744 37.1702 234.811 37.1702C178.87 37.1702 151.269 62.6611 151.269 96.8722L154.145 127.322C154.145 127.322 160.776 120.783 160.186 111.14C158.841 89.177 185.103 87.2175 215.703 83.799C263.944 78.4067 277.501 61.4787 277.501 61.4787C277.501 61.4787 293.31 64.6135 303.412 78.4066C309.946 87.3247 311.469 100.989 310.964 106.577C310.463 112.162 315.469 121.831 315.469 121.831Z" fill="#1E1111"/>
<path d="M180.133 126.637C161.734 125.335 157.501 114.3 157.501 107.506C157.501 103.227 169.082 99.1982 187.612 99.1982C206.142 99.1982 221.169 102.722 221.169 106.746C221.169 124.122 197.943 127.895 180.133 126.637ZM187.319 96.8715C165.677 96.8715 152.145 101.58 152.145 106.576C152.145 114.515 157.094 127.404 178.585 128.925C199.376 130.396 226.514 125.984 226.514 105.697C226.514 100.989 208.969 96.8715 187.319 96.8715Z" fill="#AE1319"/>
<path d="M240.082 110.841C240.082 110.841 239.072 107.75 231.923 107.75C227.026 107.75 225.784 111.139 225.784 111.139L223.193 102.207C223.193 102.207 226.766 104.004 229.153 104.004C230.35 104.004 233.251 104.353 235.695 104.004C238.127 103.654 240.082 102.207 240.082 102.207V110.841Z" fill="#AE1319"/>
<path d="M155.163 115.693C155.163 115.693 147.375 115.366 147.375 113.03C147.375 110.694 147.375 109.666 147.375 105.99C147.375 102.314 155.163 103.485 155.163 103.485V115.693Z" fill="#AE1319"/>
<path d="M241.952 106.746C241.952 102.722 256.971 99.1982 275.501 99.1982C294.031 99.1982 305.604 103.227 305.604 107.506C305.604 114.3 301.375 125.335 282.98 126.637C265.183 127.895 241.952 124.122 241.952 106.746ZM236.595 105.697C236.595 125.984 263.728 130.396 284.528 128.925C306.015 127.404 310.964 114.515 310.964 106.576C310.964 101.58 297.436 96.8715 275.786 96.8715C254.144 96.8715 236.595 100.989 236.595 105.697Z" fill="#AE1319"/>
<path d="M307.946 115.693C307.946 115.693 315.734 115.366 315.734 113.03C315.734 110.694 315.734 109.666 315.734 105.99C315.734 102.314 307.946 103.485 307.946 103.485V115.693Z" fill="#AE1319"/>
</svg>
